<svg width="200" height="33" viewBox="0 0 200 33" fill="none" xmlns="http://www.w3.org/2000/svg">
<g clip-path="url(#clip0_453_3087)">
<path d="M41.9275 26.5406V4.32812H40.1465V28.3157H59.0791V26.5406H41.9275Z" fill="white"/>
<path d="M82.7596 4.32812V16.2896C82.7596 23.4959 79.9559 26.4701 72.8142 26.4701C65.6726 26.4701 62.8689 23.4959 62.8689 16.2896V4.32812H61.0938V16.2896C61.0938 24.4892 64.6793 28.2452 72.8142 28.2452C80.9492 28.2452 84.5347 24.4892 84.5347 16.2896V4.32812H82.7596Z" fill="white"/>
<path d="M108.317 16.2543C112.761 14.5791 114.671 10.5469 114.671 4.32812H112.896C112.896 11.7754 110.163 15.3962 102.575 15.3962C94.9862 15.3962 92.2236 11.7754 92.2236 4.32812H90.4779C90.4779 10.5469 92.394 14.5791 96.8318 16.2543C92.2236 17.9295 90.0664 21.9265 90.0664 28.2452H91.8474C91.8474 20.6627 95.0215 17.1772 102.575 17.1772C110.128 17.1772 113.308 20.6627 113.308 28.2452H115.083C115.083 21.9265 112.896 17.9295 108.317 16.2543Z" fill="white"/>
<path d="M142.144 6.10324V4.32812H122.494V28.3157H142.144V26.5053H124.269V17.3123H139.887V15.5372H124.269V6.10324H142.144Z" fill="white"/>
<path d="M150.75 26.5406V4.32812H148.975V28.3157H167.907V26.5406H150.75Z" fill="white"/>
<path d="M197.978 28.2452H199.994L186.422 4.32812H184.988L171.422 28.2452H173.473L176.859 22.3027H194.592L197.978 28.2452ZM177.846 20.5217L185.705 6.64989L193.57 20.5217H177.846Z" fill="white"/>
<path d="M16.3228 32.634C25.3345 32.634 32.6398 25.3286 32.6398 16.317C32.6398 7.30536 25.3345 0 16.3228 0C7.31122 0 0.00585938 7.30536 0.00585938 16.317C0.00585938 25.3286 7.31122 32.634 16.3228 32.634Z" fill="white"/>
<path d="M14.7411 15.5776C8.94547 15.56 6.82944 12.768 6.82944 7.05469H5.4834C5.4834 11.8393 6.95875 14.9428 10.3738 16.2359C6.82944 17.5232 5.17188 20.5973 5.17188 25.4642H6.53554C6.53554 19.6451 8.96898 16.9589 14.7411 16.9413V15.5776Z" fill="black"/>
<path d="M16.5756 15.5024H17.6689C17.6689 15.8081 17.4279 16.0491 17.1223 16.0491C16.8225 16.0491 16.5756 15.8081 16.5756 15.5024ZM15.6587 13.4922H15.7586L15.8644 13.5039L15.9643 13.5157L16.0643 13.5333L16.1583 13.5568L16.2582 13.5804L16.3523 13.6156L16.4404 13.6509L16.5286 13.692L16.6168 13.7332L16.6991 13.7802L16.7814 13.8331L16.8637 13.8919L16.9401 13.9507L17.0106 14.0153L17.0811 14.08L17.1458 14.1505L17.2104 14.221L17.2692 14.2975L17.328 14.3797L17.3809 14.462L17.4279 14.5443L17.475 14.6325L17.5102 14.7207L17.5514 14.8147L17.5808 14.9088L17.6101 15.0028L17.6278 15.1027L17.6454 15.1968L17.663 15.3026L17.6689 15.4025V15.5024H16.5756V15.4554L16.5698 15.4084L16.5639 15.3614L16.558 15.3202L16.5462 15.2732L16.5345 15.232L16.5227 15.1909L16.5051 15.1497L16.4875 15.1086L16.464 15.0675L16.4463 15.0263L16.4228 14.991L16.3934 14.9558L16.3699 14.9205L16.3405 14.8852L16.3053 14.8559L16.2759 14.8265L16.2406 14.7971L16.2053 14.7677L16.1701 14.7442L16.1348 14.7207L16.0937 14.6972L16.0584 14.6736L16.0172 14.656L15.9761 14.6384L15.9291 14.6266L15.8879 14.6149L15.8409 14.6031L15.7998 14.5972L15.7527 14.5914L15.7057 14.5855H15.6587V13.4922ZM13.6426 15.5024L13.6485 15.4025L13.6543 15.3026L13.6661 15.1968L13.6837 15.1027L13.7072 15.0028L13.7366 14.9088L13.766 14.8147L13.8013 14.7207L13.8424 14.6325L13.8894 14.5443L13.9365 14.462L13.9894 14.3797L14.0423 14.2975L14.1011 14.221L14.1657 14.1505L14.2304 14.08L14.3009 14.0153L14.3773 13.9507L14.4537 13.8919L14.5301 13.8331L14.6124 13.7802L14.6947 13.7332L14.7829 13.692L14.8711 13.6509L14.9651 13.6156L15.0591 13.5804L15.1532 13.5568L15.2531 13.5333L15.353 13.5157L15.453 13.5039L15.5529 13.4922H15.6587V14.5855H15.6117L15.5646 14.5914L15.5176 14.5972L15.4706 14.6031L15.4295 14.6149L15.3824 14.6266L15.3413 14.6384L15.3001 14.656L15.259 14.6736L15.2178 14.6972L15.1826 14.7207L15.1414 14.7442L15.1062 14.7677L15.0709 14.7971L15.0356 14.8265L15.0062 14.8559L14.9769 14.8852L14.9475 14.9205L14.9181 14.9558L14.8946 14.991L14.8711 15.0263L14.8475 15.0675L14.8299 15.1086L14.8064 15.1497L14.7946 15.1909L14.777 15.232L14.7653 15.2732L14.7535 15.3202L14.7476 15.3614L14.7417 15.4084L14.7359 15.4554V15.5024H13.6426ZM13.6426 15.5259V15.5201V15.5142V15.5083V15.5024H14.7359V15.5083V15.5142V15.5201V15.5083L13.6426 15.5259ZM13.6426 15.5259L14.7359 15.5083C14.7417 15.8139 14.5007 16.0608 14.1951 16.0667C13.8953 16.0667 13.6485 15.8257 13.6426 15.5259Z" fill="black"/>
<path d="M17.9102 17.0663C23.7057 17.0839 25.8218 19.87 25.8218 25.5833H27.1619C27.1619 20.7987 25.6925 17.6952 22.2715 16.408C25.8218 15.1207 27.4793 12.0466 27.4793 7.17969H26.1098C26.1098 12.9988 23.6822 15.6791 17.9102 15.6967V17.0663Z" fill="black"/>
<path fill-rule="evenodd" clip-rule="evenodd" d="M18.4565 16.5781C18.7585 16.5781 19.0034 16.823 19.0034 17.125V17.1367C19.0034 18.247 18.1089 19.1531 16.9929 19.1531C15.8797 19.1531 14.9766 18.2499 14.9766 17.1368C14.9766 16.8347 15.2214 16.5899 15.5234 16.5899C15.8255 16.5899 16.0703 16.8347 16.0703 17.1368C16.0703 17.6459 16.4838 18.0593 16.9929 18.0593C17.4992 18.0593 17.9096 17.6487 17.9096 17.1368V17.1251C17.9096 16.8231 18.1545 16.5781 18.4565 16.5781Z" fill="black"/>
</g>
<defs>
<clipPath id="clip0_453_3087">
<rect width="200" height="32.6398" fill="white"/>
</clipPath>
</defs>
</svg>
