<svg width="84" height="93" viewBox="0 0 84 93" fill="none" xmlns="http://www.w3.org/2000/svg">
<path d="M42 0C18.8033 0 0 20.8179 0 46.5C0 72.1821 18.8033 93 42 93C65.1967 93 84 72.1821 84 46.5C84 20.8179 65.1967 0 42 0ZM59.7126 61.2149C58.2284 65.8797 54.2183 68.9754 49.7528 68.9013H24.5086C24.061 68.9013 23.6957 68.4969 23.6957 68.0014V52.2555C23.6957 51.76 24.061 51.3556 24.5086 51.3556H50.7431C52.037 51.3699 53.1276 50.2877 53.2537 48.858C53.2974 48.2771 53.1688 47.6933 52.8858 47.2006C52.7624 46.9955 52.8087 46.7193 52.9939 46.5826C53.1019 46.5 53.2382 46.4829 53.3591 46.5313C58.7763 48.6444 61.6213 55.2173 59.7126 61.2149ZM60.3017 25.0071V40.7445C60.3017 41.24 59.939 41.6444 59.4889 41.6444H33.2543C31.9579 41.6301 30.8672 42.7123 30.7438 44.142C30.7 44.7229 30.8312 45.3067 31.1116 45.7994C31.2376 46.0045 31.1888 46.2807 31.0061 46.4174C30.8981 46.5 30.7618 46.5171 30.6409 46.4687C25.2237 44.3556 22.3813 37.7827 24.2874 31.7851C25.7716 27.1203 29.7792 24.0246 34.2472 24.0987H59.4914C59.939 24.0987 60.3043 24.5031 60.3043 24.9986V25.0043L60.3017 25.0071Z" fill="#FF7701"/>
</svg>
