<svg width="284" height="71" viewBox="0 0 284 71" fill="none" xmlns="http://www.w3.org/2000/svg">
<g clip-path="url(#clip0_129_8460)">
<path d="M102.637 37.6483H111.731C113.01 37.6483 114.046 38.6955 114.046 39.9742C114.046 41.2639 113.01 42.3 111.731 42.3H100.763C100.587 42.3 100.422 42.3662 100.3 42.4764L96.9935 45.3314C96.4864 45.7723 96.7951 46.5991 97.4565 46.5991H111.18C111.18 46.5991 111.191 46.5991 111.191 46.5881C111.191 46.577 111.202 46.577 111.202 46.577C111.379 46.5881 111.544 46.5991 111.72 46.5991C115.358 46.5991 118.312 43.6338 118.312 39.9742C118.312 36.5019 115.656 33.6469 112.261 33.3713C112.261 33.3713 112.25 33.3713 112.25 33.3603C112.25 33.3492 112.25 33.3492 112.239 33.3492H102.45C101.171 33.3492 100.135 32.302 100.135 31.0234C100.135 29.7336 101.171 28.6975 102.45 28.6975H113.396C113.572 28.6975 113.749 28.6313 113.881 28.5101L116.956 25.6551C117.441 25.2031 117.122 24.3984 116.471 24.3984H102.637C102.582 24.3984 102.516 24.3984 102.461 24.3984C98.8233 24.3984 95.8691 27.3637 95.8691 31.0234C95.8691 34.683 98.8233 37.6483 102.461 37.6483C102.516 37.6483 102.571 37.6483 102.637 37.6483Z" fill="#BFBFBF"/>
<path d="M155.57 24.3938C155.173 24.3938 154.854 24.7135 154.854 25.1214V45.889C154.854 46.2858 155.173 46.6165 155.57 46.6165H172.215C172.413 46.6165 172.601 46.5283 172.744 46.385L174.827 44.1473C175.257 43.6844 174.938 42.9238 174.298 42.9238H159.77C159.373 42.9238 159.053 42.6041 159.053 42.1962V25.1103C159.053 24.7135 158.734 24.3828 158.337 24.3828H155.57V24.3938Z" fill="#BFBFBF"/>
<path fill-rule="evenodd" clip-rule="evenodd" d="M128.916 24.3906C128.916 24.4016 128.916 24.4016 128.916 24.3906C126.788 24.4898 125.08 26.1984 124.98 28.3259V42.2922C124.98 42.3473 124.98 42.4135 124.98 42.4686C124.98 44.6843 126.722 46.4921 128.916 46.5802H144.017C146.2 46.481 147.953 44.6732 147.953 42.4686C147.953 42.4135 147.953 42.3473 147.953 42.2922V28.3369C147.865 26.2094 146.156 24.4898 144.028 24.4016H128.916V24.3906ZM131.738 28.3369C131.727 28.3369 131.727 28.3369 131.738 28.3369C130.404 28.392 129.335 29.4723 129.279 30.8171V39.6026C129.279 39.6357 129.279 39.6797 129.279 39.7128C129.279 41.1017 130.371 42.2481 131.738 42.3033H141.207C142.573 42.2481 143.665 41.1017 143.665 39.7128C143.665 39.6797 143.665 39.6357 143.665 39.6026V30.8171C143.61 29.4723 142.54 28.4031 141.207 28.3369H131.738Z" fill="#BFBFBF"/>
<path fill-rule="evenodd" clip-rule="evenodd" d="M199.024 45.8872C199.024 46.284 199.344 46.6147 199.741 46.6147H202.562C202.959 46.6147 203.279 46.295 203.279 45.8872V28.7021C203.279 28.647 203.279 28.5808 203.279 28.5257C203.279 26.31 201.548 24.5022 199.388 24.4141H184.892C184.837 24.4141 184.771 24.4141 184.716 24.4141C182.467 24.4141 180.648 26.2549 180.648 28.5367C180.648 28.5918 180.648 28.658 180.648 28.7131V45.8982C180.648 46.295 180.968 46.6257 181.365 46.6257H184.187C184.584 46.6257 184.903 46.306 184.903 45.8982V38.7442C184.903 38.3473 185.223 38.0166 185.62 38.0166H198.341C198.737 38.0166 199.057 38.3363 199.057 38.7442V45.8872H199.024ZM184.881 34.0593V30.4878C184.881 29.0989 185.995 27.9745 187.362 27.9745H196.555C197.922 27.9745 199.035 29.0989 199.035 30.4878V34.0593C199.035 34.4562 198.715 34.7869 198.319 34.7869H185.598C185.201 34.7869 184.881 34.4672 184.881 34.0593Z" fill="#BFBFBF"/>
<path fill-rule="evenodd" clip-rule="evenodd" d="M258.603 46.6101C258.206 46.6101 257.887 46.2904 257.887 45.8826V38.7285C257.887 38.3317 257.567 38.001 257.17 38.001H244.306C243.909 38.001 243.589 38.3207 243.589 38.7285V45.8826C243.589 46.2794 243.27 46.6101 242.873 46.6101H240.029C239.632 46.6101 239.312 46.2904 239.312 45.8826V28.6975C239.312 28.6424 239.312 28.5762 239.312 28.5211C239.312 26.2503 241.153 24.3984 243.424 24.3984C243.479 24.3984 243.545 24.3984 243.6 24.3984H258.25C260.433 24.4976 262.186 26.3054 262.186 28.5101C262.186 28.5652 262.186 28.6313 262.186 28.6864V45.8715C262.186 46.2684 261.866 46.5991 261.469 46.5991H258.603V46.6101ZM243.589 30.4832V34.0547C243.589 34.4516 243.909 34.7822 244.306 34.7822H257.17C257.567 34.7822 257.887 34.4626 257.887 34.0547V30.4832C257.887 29.0943 256.762 27.9699 255.384 27.9699H246.092C244.703 27.9699 243.589 29.0943 243.589 30.4832Z" fill="#BFBFBF"/>
<path d="M213.905 24.3906C214.114 24.3906 214.312 24.4788 214.445 24.6442L227.099 39.7349C227.529 40.2419 228.356 39.9333 228.356 39.2609V25.1182C228.356 24.7213 228.676 24.3906 229.072 24.3906H231.894C232.291 24.3906 232.611 24.7103 232.611 25.1182V45.8858C232.611 46.2826 232.291 46.6133 231.894 46.6133H228.389C228.378 46.6133 228.367 46.6023 228.367 46.5913C228.367 46.5802 228.367 46.5802 228.356 46.5692L215.481 31.5887C215.051 31.0817 214.224 31.4014 214.224 32.0627V45.8968C214.224 46.2936 213.905 46.6243 213.508 46.6243H210.664C210.267 46.6243 209.947 46.3047 209.947 45.8968V25.1182C209.947 24.7213 210.267 24.3906 210.664 24.3906H213.905Z" fill="#BFBFBF"/>
<path d="M30.248 47.3715C30.6007 47.0187 31.0747 46.8203 31.5708 46.8203H77.4822C78.32 46.8203 78.7388 47.8344 78.1436 48.4187L69.0715 57.4907C68.7188 57.8435 68.2448 58.0419 67.7488 58.0419H21.8373C20.9996 58.0419 20.5807 57.0278 21.1759 56.4435L30.248 47.3715Z" fill="#BFBFBF"/>
<path d="M30.248 13.5121C30.6007 13.1594 31.0747 12.9609 31.5708 12.9609H77.4822C78.32 12.9609 78.7388 13.9751 78.1436 14.5593L69.0715 23.6203C68.7188 23.9731 68.2448 24.1715 67.7488 24.1715H21.8373C20.9996 24.1715 20.5807 23.1574 21.1759 22.5731L30.248 13.5121Z" fill="#BFBFBF"/>
<path d="M69.0715 30.3324C68.7188 29.9797 68.2448 29.7812 67.7488 29.7812H21.8373C20.9996 29.7812 20.5807 30.7954 21.1759 31.3796L30.248 40.4406C30.6007 40.7934 31.0747 40.9918 31.5708 40.9918H77.4822C78.32 40.9918 78.7388 39.9777 78.1436 39.3934L69.0715 30.3324Z" fill="#BFBFBF"/>
</g>
<defs>
<clipPath id="clip0_129_8460">
<rect width="283.075" height="70.8789" fill="white" transform="translate(0 0.0625)"/>
</clipPath>
</defs>
</svg>
