<svg width="205" height="132" viewBox="0 0 205 132" fill="none" xmlns="http://www.w3.org/2000/svg">
<g clip-path="url(#clip0_1655_5397)">
<path d="M169.523 16.3594H-8.23279V130.922H169.523V16.3594Z" fill="black"/>
<path d="M69.8649 33.1828C69.8649 18.5365 82.1768 19.4406 86.2808 19.4406H102.34V49.2756H90.0279C90.0279 49.2756 102.34 52.892 102.34 63.1988C102.34 77.6646 90.0883 77.6643 88.2547 77.6642H88.2436C85.3886 77.6642 69.8649 76.941 69.8649 76.941V47.8291H85.3886C85.3886 47.8291 69.8649 46.3827 69.8649 33.1828Z" fill="white"/>
<path d="M106.253 19.4297C106.253 19.4297 106.253 57.047 106.789 61.0258C107.571 66.824 109.155 70.3078 113.585 73.8663C118.32 77.67 128.785 77.6642 128.785 77.6642L128.964 49.6321C128.964 49.6321 138.442 50.1745 142.733 41.8554C145.155 37.1611 144.522 28.6531 144.522 28.6531H128.785L128.964 19.4297H106.253Z" fill="white"/>
<path d="M32.0392 106.699C31.1329 106.699 30.3048 106.627 29.5549 106.482C28.8048 106.338 28.1564 106.133 27.6095 105.87C27.0784 105.594 26.6643 105.258 26.3674 104.863C26.0705 104.468 25.9221 104.014 25.9221 103.501C25.9221 103.435 25.9221 103.376 25.9221 103.323C25.9377 103.27 25.9455 103.224 25.9455 103.185H29.0157C29.0157 103.211 29.008 103.244 28.9924 103.283C28.9924 103.31 28.9924 103.336 28.9924 103.362C29.008 103.705 29.1565 103.981 29.4377 104.192C29.7346 104.389 30.1174 104.534 30.5861 104.626C31.0705 104.718 31.5783 104.764 32.1095 104.764C32.6095 104.764 33.086 104.731 33.5392 104.666C34.0079 104.6 34.3907 104.488 34.6876 104.33C34.9845 104.159 35.1329 103.922 35.1329 103.619C35.1329 103.277 34.9611 103.027 34.6173 102.869C34.2736 102.697 33.797 102.559 33.1877 102.454C32.5782 102.349 31.8751 102.237 31.0782 102.118C30.4377 102.013 29.8283 101.888 29.2502 101.743C28.6877 101.598 28.1799 101.414 27.7268 101.19C27.2893 100.953 26.9376 100.657 26.6721 100.302C26.4221 99.9461 26.2971 99.5052 26.2971 98.9786C26.2971 98.4388 26.4377 97.9716 26.719 97.5766C27.0002 97.1817 27.3986 96.8591 27.9142 96.609C28.4455 96.3457 29.0704 96.1548 29.7893 96.0364C30.5236 95.9047 31.3283 95.8389 32.2032 95.8389C33.0313 95.8389 33.7814 95.9047 34.4533 96.0364C35.1408 96.1548 35.7345 96.3392 36.2345 96.5893C36.7344 96.8394 37.1251 97.1422 37.4063 97.4975C37.6876 97.8531 37.8282 98.2545 37.8282 98.7021C37.8282 98.7811 37.8282 98.8535 37.8282 98.9193C37.8282 98.9851 37.8203 99.0378 37.8047 99.0773H34.7579V98.9588C34.7579 98.6955 34.6407 98.4783 34.4063 98.3072C34.1876 98.1229 33.8829 97.9846 33.4923 97.8926C33.1016 97.8003 32.6485 97.7543 32.1329 97.7543C31.8517 97.7543 31.547 97.774 31.2189 97.8135C30.8908 97.8398 30.5861 97.8926 30.3048 97.9716C30.0236 98.0504 29.7893 98.1492 29.6017 98.2677C29.4299 98.3862 29.3439 98.5442 29.3439 98.7416C29.3439 99.0049 29.5002 99.2089 29.8126 99.3537C30.1251 99.4985 30.5392 99.617 31.0549 99.7092C31.5704 99.8013 32.1329 99.9001 32.7423 100.005C33.4142 100.111 34.0782 100.229 34.7345 100.361C35.3908 100.492 35.9766 100.67 36.4923 100.894C37.0079 101.105 37.4219 101.401 37.7344 101.783C38.047 102.164 38.2032 102.671 38.2032 103.303C38.2032 103.935 38.0547 104.468 37.7579 104.903C37.4766 105.337 37.0626 105.686 36.5158 105.949C35.9845 106.212 35.3361 106.403 34.5704 106.522C33.8205 106.64 32.9767 106.699 32.0392 106.699Z" fill="white"/>
<path d="M45.2465 106.7C43.7934 106.7 42.6606 106.391 41.8481 105.772C41.0356 105.153 40.6294 104.159 40.6294 102.79V96.0566H43.6762V102.336C43.6762 102.744 43.7387 103.086 43.8637 103.363C43.9887 103.639 44.1684 103.863 44.4028 104.034C44.6371 104.192 44.9183 104.311 45.2465 104.39C45.5902 104.455 45.9653 104.488 46.3715 104.488C46.9652 104.488 47.5121 104.377 48.0121 104.153C48.5277 103.929 48.9418 103.619 49.2543 103.225C49.5667 102.83 49.7231 102.369 49.7231 101.842V96.0566H52.7699V106.463H50.2855L50.0511 104.883H49.8637C49.5043 105.291 49.0824 105.634 48.598 105.91C48.1137 106.173 47.5824 106.371 47.0043 106.503C46.4418 106.634 45.8559 106.7 45.2465 106.7Z" fill="white"/>
<path d="M55.9663 110.017V96.0563H58.4507L58.7085 97.5768H58.896C59.3803 96.9581 59.9898 96.5105 60.7241 96.234C61.4741 95.9576 62.3022 95.8193 63.2085 95.8193C64.3491 95.8193 65.3334 96.0168 66.1615 96.4117C67.0053 96.7935 67.6538 97.3859 68.1069 98.1889C68.5756 98.992 68.81 100.019 68.81 101.269C68.81 102.494 68.5756 103.514 68.1069 104.33C67.6538 105.133 67.0209 105.732 66.2085 106.127C65.396 106.509 64.4584 106.7 63.3959 106.7C62.7866 106.7 62.2163 106.641 61.685 106.522C61.1538 106.417 60.6773 106.252 60.2554 106.028C59.8334 105.805 59.4741 105.528 59.1773 105.199H59.0132V110.017H55.9663ZM62.3647 104.508C63.1147 104.508 63.7319 104.396 64.2163 104.172C64.7162 103.935 65.0834 103.586 65.3178 103.126C65.5678 102.665 65.6928 102.092 65.6928 101.408V101.131C65.6928 100.433 65.5678 99.8542 65.3178 99.3934C65.0834 98.9328 64.7162 98.5905 64.2163 98.3667C63.7163 98.1297 63.0913 98.0112 62.3413 98.0112C61.6225 98.0112 61.0132 98.1363 60.5132 98.3864C60.0131 98.6233 59.6382 98.9788 59.3882 99.4527C59.1382 99.9135 59.0132 100.48 59.0132 101.151V101.348C59.0132 101.849 59.0835 102.296 59.2241 102.691C59.3647 103.086 59.5757 103.422 59.8569 103.698C60.1538 103.961 60.5053 104.166 60.9116 104.31C61.3334 104.442 61.8179 104.508 62.3647 104.508Z" fill="white"/>
<path d="M77.7194 106.7C76.2663 106.7 75.032 106.509 74.0163 106.127C73.0163 105.732 72.2508 105.133 71.7195 104.33C71.1882 103.527 70.9226 102.507 70.9226 101.269C70.9226 100.032 71.1804 99.0118 71.696 98.2087C72.2273 97.4057 72.993 96.8066 73.9929 96.4117C75.0085 96.0168 76.235 95.8193 77.6726 95.8193C79.0788 95.8193 80.2585 96.0168 81.2116 96.4117C82.1803 96.7935 82.9069 97.3727 83.3912 98.1494C83.8756 98.9261 84.1178 99.9003 84.1178 101.072V101.901H74.0866C74.1179 102.546 74.2742 103.08 74.5554 103.501C74.8523 103.909 75.2663 104.212 75.7975 104.409C76.3444 104.593 77.0084 104.686 77.7897 104.686C78.1335 104.686 78.4928 104.653 78.8678 104.587C79.2429 104.508 79.5866 104.396 79.899 104.251C80.2116 104.106 80.4694 103.915 80.6725 103.678C80.8913 103.442 81.0084 103.165 81.0241 102.849H84.071C84.071 103.442 83.9225 103.975 83.6256 104.449C83.3288 104.922 82.899 105.331 82.3366 105.673C81.7897 106.002 81.1257 106.259 80.3444 106.443C79.5631 106.614 78.6881 106.7 77.7194 106.7ZM74.1101 100.144H80.9303C80.9303 99.7357 80.8444 99.3869 80.6725 99.0973C80.5162 98.8077 80.2897 98.5707 79.9928 98.3864C79.696 98.1889 79.3522 98.0507 78.9616 97.9718C78.571 97.8796 78.1491 97.8335 77.6959 97.8335C76.9928 97.8335 76.3835 97.9191 75.8678 98.0902C75.3523 98.2614 74.946 98.518 74.6492 98.8603C74.3678 99.2026 74.1882 99.6304 74.1101 100.144Z" fill="white"/>
<path d="M86.7737 106.463V96.0563H89.2814L89.5159 97.794H89.6799C89.8518 97.4517 90.0706 97.1292 90.3361 96.8264C90.6175 96.5237 90.969 96.2801 91.3909 96.0958C91.8284 95.9115 92.3283 95.8193 92.8909 95.8193C93.1564 95.8193 93.4064 95.8391 93.6408 95.8786C93.8908 95.9181 94.1018 95.9641 94.2736 96.0168V98.3469H93.0314C92.4689 98.3469 91.9846 98.4193 91.5783 98.5642C91.1877 98.709 90.8596 98.9196 90.594 99.1961C90.3284 99.4592 90.133 99.7687 90.008 100.124C89.883 100.48 89.8206 100.874 89.8206 101.309V106.463H86.7737Z" fill="white"/>
<path d="M100.329 106.7C99.4857 106.7 98.8138 106.582 98.3138 106.345C97.8139 106.108 97.4544 105.766 97.2358 105.318C97.017 104.87 96.9076 104.331 96.9076 103.699V98.1104H94.9857V96.0568H97.0014L97.5872 93.0947H99.9544V96.0568H102.697V98.1104H99.9544V103.482C99.9544 103.863 100.048 104.153 100.236 104.35C100.439 104.548 100.806 104.647 101.337 104.647H102.697V106.364C102.509 106.43 102.275 106.483 101.993 106.522C101.712 106.575 101.423 106.615 101.126 106.641C100.829 106.68 100.564 106.7 100.329 106.7Z" fill="white"/>
<path d="M111.365 106.7C109.912 106.7 108.677 106.509 107.662 106.127C106.662 105.732 105.896 105.133 105.365 104.33C104.833 103.527 104.568 102.507 104.568 101.269C104.568 100.032 104.826 99.0118 105.341 98.2087C105.873 97.4057 106.638 96.8066 107.638 96.4117C108.654 96.0168 109.88 95.8193 111.318 95.8193C112.724 95.8193 113.904 96.0168 114.857 96.4117C115.826 96.7935 116.552 97.3727 117.037 98.1494C117.52 98.9261 117.763 99.9003 117.763 101.072V101.901H107.732C107.763 102.546 107.919 103.08 108.201 103.501C108.498 103.909 108.912 104.212 109.443 104.409C109.99 104.593 110.654 104.686 111.435 104.686C111.779 104.686 112.138 104.653 112.513 104.587C112.888 104.508 113.232 104.396 113.544 104.251C113.857 104.106 114.115 103.915 114.318 103.678C114.537 103.442 114.653 103.165 114.67 102.849H117.716C117.716 103.442 117.568 103.975 117.271 104.449C116.974 104.922 116.544 105.331 115.982 105.673C115.435 106.002 114.771 106.259 113.99 106.443C113.208 106.614 112.334 106.7 111.365 106.7ZM107.755 100.144H114.576C114.576 99.7357 114.489 99.3869 114.318 99.0973C114.162 98.8077 113.935 98.5707 113.638 98.3864C113.341 98.1889 112.997 98.0507 112.607 97.9718C112.216 97.8796 111.795 97.8335 111.341 97.8335C110.638 97.8335 110.029 97.9191 109.513 98.0902C108.998 98.2614 108.591 98.518 108.294 98.8603C108.013 99.2026 107.833 99.6304 107.755 100.144Z" fill="white"/>
<path d="M124.333 106.7C123.802 106.7 123.263 106.654 122.716 106.562C122.185 106.483 121.692 106.338 121.239 106.127C120.802 105.903 120.45 105.601 120.184 105.219C119.918 104.824 119.787 104.317 119.787 103.698C119.787 102.922 120.012 102.303 120.465 101.842C120.935 101.368 121.583 101.013 122.412 100.776C123.255 100.526 124.247 100.361 125.387 100.282C126.529 100.203 127.771 100.164 129.114 100.164V99.5119C129.114 99.1434 129.021 98.834 128.833 98.5839C128.661 98.3337 128.364 98.1494 127.942 98.0309C127.536 97.8993 126.966 97.8335 126.231 97.8335C125.591 97.8335 125.052 97.8861 124.615 97.9915C124.193 98.0836 123.872 98.2152 123.654 98.3864C123.45 98.5444 123.348 98.7287 123.348 98.9393V99.1961H120.349C120.332 99.1301 120.325 99.0709 120.325 99.0183C120.325 98.9525 120.325 98.8801 120.325 98.801C120.325 98.1956 120.559 97.669 121.029 97.2214C121.513 96.7738 122.2 96.4315 123.091 96.1945C123.997 95.9444 125.083 95.8193 126.348 95.8193C127.646 95.8193 128.723 95.9444 129.583 96.1945C130.442 96.4315 131.083 96.8001 131.505 97.3004C131.942 97.8006 132.16 98.4457 132.16 99.2356V103.915C132.16 104.166 132.231 104.35 132.372 104.468C132.528 104.587 132.732 104.646 132.981 104.646H133.942V106.364C133.786 106.417 133.528 106.483 133.169 106.562C132.825 106.641 132.418 106.68 131.95 106.68C131.403 106.68 130.95 106.614 130.591 106.483C130.247 106.364 129.974 106.193 129.77 105.969C129.583 105.732 129.45 105.462 129.372 105.159H129.208C128.864 105.475 128.442 105.752 127.942 105.989C127.458 106.213 126.911 106.384 126.302 106.502C125.708 106.634 125.052 106.7 124.333 106.7ZM125.177 104.646C125.661 104.646 126.138 104.593 126.606 104.488C127.075 104.383 127.497 104.238 127.872 104.054C128.247 103.856 128.544 103.613 128.763 103.323C128.996 103.033 129.114 102.711 129.114 102.355V101.862C127.817 101.862 126.7 101.908 125.763 102C124.825 102.092 124.106 102.263 123.606 102.513C123.107 102.75 122.857 103.093 122.857 103.54C122.857 103.803 122.958 104.021 123.161 104.192C123.365 104.35 123.638 104.468 123.981 104.547C124.341 104.613 124.74 104.646 125.177 104.646Z" fill="white"/>
<path d="M135.617 106.463V96.0563H138.124L138.359 97.636H138.546C138.89 97.2279 139.288 96.8923 139.742 96.629C140.194 96.3525 140.687 96.1484 141.217 96.0168C141.764 95.8851 142.319 95.8193 142.882 95.8193C143.819 95.8193 144.616 95.9641 145.273 96.2537C145.945 96.5434 146.444 97.0041 146.773 97.636H146.96C147.32 97.2279 147.734 96.8923 148.202 96.629C148.671 96.3525 149.178 96.1484 149.725 96.0168C150.272 95.8851 150.835 95.8193 151.414 95.8193C152.335 95.8193 153.116 95.9509 153.757 96.2142C154.413 96.4775 154.913 96.8923 155.256 97.4583C155.616 98.0244 155.795 98.7616 155.795 99.67V106.463H152.749V100.164C152.749 99.7555 152.687 99.4132 152.562 99.1368C152.452 98.8603 152.288 98.6431 152.069 98.4852C151.866 98.3272 151.616 98.2152 151.32 98.1494C151.023 98.0704 150.694 98.0309 150.335 98.0309C149.773 98.0309 149.257 98.1429 148.788 98.3667C148.319 98.5905 147.944 98.8998 147.663 99.2947C147.382 99.6897 147.241 100.15 147.241 100.677V106.463H144.194V100.164C144.194 99.7555 144.132 99.4132 144.007 99.1368C143.898 98.8603 143.734 98.6431 143.515 98.4852C143.312 98.3272 143.062 98.2152 142.765 98.1494C142.468 98.0704 142.132 98.0309 141.757 98.0309C141.21 98.0309 140.695 98.1429 140.21 98.3667C139.742 98.5905 139.366 98.8998 139.085 99.2947C138.804 99.6897 138.663 100.15 138.663 100.677V106.463H135.617Z" fill="white"/>
<path d="M158.238 111.548H180.697V88.6523H158.238V111.548Z" fill="white"/>
</g>
<defs>
<clipPath id="clip0_1655_5397">
<rect width="203.149" height="131.028" fill="white" transform="translate(0.983643)"/>
</clipPath>
</defs>
</svg>
