<svg width="25" height="25" viewBox="0 0 25 25" fill="none" xmlns="http://www.w3.org/2000/svg">
<path d="M23.06 12.75C23.06 11.97 22.99 11.22 22.86 10.5H12.5V14.755H18.42C18.165 16.13 17.39 17.295 16.225 18.075V20.835H19.78C21.86 18.92 23.06 16.1 23.06 12.75Z" fill="#4285F4"/>
<path d="M12.4999 23.5037C15.4699 23.5037 17.9599 22.5187 19.7799 20.8387L16.2249 18.0788C15.2399 18.7388 13.9799 19.1287 12.4999 19.1287C9.63492 19.1287 7.20992 17.1937 6.34492 14.5938H2.66992V17.4438C4.47992 21.0388 8.19992 23.5037 12.4999 23.5037Z" fill="#34A853"/>
<path d="M6.345 14.5925C6.125 13.9325 6 13.2275 6 12.5025C6 11.7775 6.125 11.0725 6.345 10.4125V7.5625H2.67C1.9 9.09536 1.49932 10.7871 1.5 12.5025C1.5 14.2775 1.925 15.9575 2.67 17.4425L6.345 14.5925Z" fill="#FBBC05"/>
<path d="M12.4999 5.875C14.1149 5.875 15.5649 6.43 16.7049 7.52L19.8599 4.365C17.9549 2.59 15.4649 1.5 12.4999 1.5C8.19992 1.5 4.47992 3.965 2.66992 7.56L6.34492 10.41C7.20992 7.81 9.63492 5.875 12.4999 5.875Z" fill="#EA4335"/>
</svg>
