<svg width="197" height="32" viewBox="0 0 197 32" fill="none" xmlns="http://www.w3.org/2000/svg">
<g clip-path="url(#clip0_1433_17654)">
<path d="M41.1055 26.0192V4.24219H39.3594V27.7596H57.9209V26.0192H41.1055Z" fill="white"/>
<path d="M81.1386 4.24219V15.9692C81.1386 23.0342 78.3898 25.9501 71.3882 25.9501C64.3866 25.9501 61.6378 23.0342 61.6378 15.9692V4.24219H59.8975V15.9692C59.8975 24.0081 63.4127 27.6904 71.3882 27.6904C79.3637 27.6904 82.8789 24.0081 82.8789 15.9692V4.24219H81.1386Z" fill="white"/>
<path d="M106.194 15.9346C110.55 14.2923 112.423 10.3391 112.423 4.24219H110.683C110.683 11.5435 108.003 15.0933 100.564 15.0933C93.1241 15.0933 90.4157 11.5435 90.4157 4.24219H88.7042C88.7042 10.3391 90.5828 14.2923 94.9336 15.9346C90.4157 17.577 88.3008 21.4956 88.3008 27.6904H90.0469C90.0469 20.2566 93.1587 16.8393 100.564 16.8393C107.969 16.8393 111.086 20.2566 111.086 27.6904H112.827C112.827 21.4956 110.683 17.577 106.194 15.9346Z" fill="white"/>
<path d="M139.358 5.98251V4.24219H120.094V27.7596H139.358V25.9847H121.834V16.9719H137.145V15.2316H121.834V5.98251H139.358Z" fill="white"/>
<path d="M147.795 26.0192V4.24219H146.055V27.7596H164.616V26.0192H147.795Z" fill="white"/>
<path d="M194.098 27.6904H196.075L182.769 4.24219H181.363L168.062 27.6904H170.074L173.393 21.8644H190.779L194.098 27.6904ZM174.361 20.1183L182.066 6.51843L189.776 20.1183H174.361Z" fill="white"/>
<path d="M16.003 31.9942C24.8379 31.9942 32.0001 24.8321 32.0001 15.9971C32.0001 7.16215 24.8379 0 16.003 0C7.16801 0 0.00585938 7.16215 0.00585938 15.9971C0.00585938 24.8321 7.16801 31.9942 16.003 31.9942Z" fill="white"/>
<path d="M14.4529 15.2699C8.77091 15.2526 6.69636 12.5154 6.69636 6.91406H5.37671C5.37671 11.6049 6.82313 14.6475 10.1712 15.9153C6.69636 17.1773 5.07129 20.1912 5.07129 24.9627H6.40822C6.40822 19.2577 8.79396 16.6241 14.4529 16.6068V15.2699Z" fill="black"/>
<path d="M16.2506 15.1974H17.3224C17.3224 15.497 17.0861 15.7333 16.7865 15.7333C16.4926 15.7333 16.2506 15.497 16.2506 15.1974ZM15.3516 13.2266H15.4496L15.5533 13.2381L15.6512 13.2496L15.7492 13.2669L15.8414 13.29L15.9394 13.313L16.0316 13.3476L16.118 13.3822L16.2045 13.4225L16.2909 13.4628L16.3716 13.5089L16.4523 13.5608L16.5329 13.6184L16.6078 13.676L16.677 13.7394L16.7462 13.8028L16.8095 13.872L16.8729 13.9411L16.9306 14.016L16.9882 14.0967L17.04 14.1774L17.0861 14.2581L17.1322 14.3445L17.1668 14.431L17.2072 14.5232L17.236 14.6154L17.2648 14.7076L17.2821 14.8055L17.2994 14.8977L17.3167 15.0015L17.3224 15.0994V15.1974H16.2506V15.1513L16.2448 15.1052L16.239 15.0591L16.2333 15.0187L16.2217 14.9726L16.2102 14.9323L16.1987 14.892L16.1814 14.8516L16.1641 14.8113L16.1411 14.771L16.1238 14.7306L16.1007 14.696L16.0719 14.6615L16.0489 14.6269L16.0201 14.5923L15.9855 14.5635L15.9567 14.5347L15.9221 14.5059L15.8875 14.4771L15.8529 14.454L15.8184 14.431L15.778 14.4079L15.7434 14.3849L15.7031 14.3676L15.6628 14.3503L15.6167 14.3388L15.5763 14.3272L15.5302 14.3157L15.4899 14.3099L15.4438 14.3042L15.3977 14.2984H15.3516V13.2266ZM13.375 15.1974L13.3808 15.0994L13.3865 15.0015L13.3981 14.8977L13.4153 14.8055L13.4384 14.7076L13.4672 14.6154L13.496 14.5232L13.5306 14.431L13.5709 14.3445L13.617 14.2581L13.6631 14.1774L13.715 14.0967L13.7669 14.016L13.8245 13.9411L13.8879 13.872L13.9513 13.8028L14.0204 13.7394L14.0953 13.676L14.1702 13.6184L14.2452 13.5608L14.3258 13.5089L14.4065 13.4628L14.493 13.4225L14.5794 13.3822L14.6716 13.3476L14.7638 13.313L14.856 13.29L14.954 13.2669L15.0519 13.2496L15.1499 13.2381L15.2479 13.2266H15.3516V14.2984H15.3055L15.2594 14.3042L15.2133 14.3099L15.1672 14.3157L15.1268 14.3272L15.0807 14.3388L15.0404 14.3503L15.0001 14.3676L14.9597 14.3849L14.9194 14.4079L14.8848 14.431L14.8445 14.454L14.8099 14.4771L14.7753 14.5059L14.7407 14.5347L14.7119 14.5635L14.6831 14.5923L14.6543 14.6269L14.6255 14.6615L14.6024 14.696L14.5794 14.7306L14.5563 14.771L14.5391 14.8113L14.516 14.8516L14.5045 14.892L14.4872 14.9323L14.4757 14.9726L14.4641 15.0187L14.4584 15.0591L14.4526 15.1052L14.4469 15.1513V15.1974H13.375ZM13.375 15.2204V15.2147V15.2089V15.2032V15.1974H14.4469V15.2032V15.2089V15.2147V15.2032L13.375 15.2204ZM13.375 15.2204L14.4469 15.2032C14.4526 15.5028 14.2163 15.7448 13.9167 15.7506C13.6228 15.7506 13.3808 15.5143 13.375 15.2204Z" fill="black"/>
<path d="M17.5586 16.7318C23.2406 16.7491 25.3151 19.4806 25.3151 25.0819H26.629C26.629 20.3911 25.1883 17.3484 21.8345 16.0864C25.3151 14.8244 26.9402 11.8105 26.9402 7.03906H25.5975C25.5975 12.7441 23.2175 15.3719 17.5586 15.3891V16.7318Z" fill="black"/>
<path fill-rule="evenodd" clip-rule="evenodd" d="M18.0943 16.25C18.3904 16.25 18.6305 16.49 18.6305 16.7862V16.7976C18.6305 17.8861 17.7536 18.7745 16.6594 18.7745C15.5681 18.7745 14.6826 17.889 14.6826 16.7977C14.6826 16.5016 14.9227 16.2615 15.2188 16.2615C15.5149 16.2615 15.7549 16.5016 15.7549 16.7977C15.7549 17.2968 16.1603 17.7022 16.6594 17.7022C17.1558 17.7022 17.5582 17.2996 17.5582 16.7977V16.7863C17.5582 16.4901 17.7982 16.25 18.0943 16.25Z" fill="black"/>
</g>
<defs>
<clipPath id="clip0_1433_17654">
<rect width="196.079" height="32" fill="white"/>
</clipPath>
</defs>
</svg>
