<svg width="60" height="60" viewBox="0 0 60 60" fill="none" xmlns="http://www.w3.org/2000/svg">
<path d="M47.4763 47.5H47.5M47.4763 47.5C45.9195 49.0437 43.0983 48.6592 41.1198 48.6592C38.6913 48.6592 37.5218 49.1343 35.7886 50.8676C34.3127 52.3434 32.3343 55 30.0001 55C27.6657 55 25.6873 52.3434 24.2114 50.8676C22.4782 49.1343 21.3087 48.6592 18.8802 48.6592C16.9017 48.6592 14.0805 49.0437 12.5237 47.5C10.9545 45.9439 11.3407 43.111 11.3407 41.1198C11.3407 38.6035 10.7904 37.4465 8.99845 35.6546C6.33284 32.989 5.00004 31.6561 5 29.9999C5.00002 28.3438 6.33281 27.011 8.99838 24.3454C10.598 22.7458 11.3407 21.1607 11.3407 18.8801C11.3407 16.9016 10.9562 14.0804 12.5 12.5236C14.0561 10.9545 16.889 11.3406 18.8802 11.3406C21.1607 11.3406 22.7458 10.598 24.3454 8.99842C27.011 6.33281 28.3438 5 30 5C31.6562 5 32.989 6.33281 35.6546 8.99842C37.2539 10.5977 38.8387 11.3406 41.1198 11.3406C43.0983 11.3406 45.9197 10.9562 47.4764 12.5C49.0455 14.0561 48.6593 16.889 48.6593 18.8801C48.6593 21.3964 49.2097 22.5534 51.0016 24.3454C53.6672 27.011 55 28.3438 55 29.9999C55 31.6561 53.6672 32.989 51.0016 35.6546C49.2096 37.4464 48.6593 38.6036 48.6593 41.1198C48.6593 43.111 49.0455 45.9439 47.4763 47.5Z" stroke="#8451E1" stroke-width="4"/>
<path d="M22.5 32.2321C22.5 32.2321 25.5 33.8617 27 36.25C27 36.25 31.5 26.875 37.5 23.75" stroke="#8451E1" stroke-width="4" stroke-linecap="round" stroke-linejoin="round"/>
</svg>
